<svg height="533pt" viewBox="-16 -91 533.33331 533" width="533pt" xmlns="http://www.w3.org/2000/svg"><path d="m500 57.75c0-34.515625-27.984375-62.5-62.5-62.5h-375c-34.515625 0-62.5 27.984375-62.5 62.5v226.25c0 34.515625 27.984375 62.5 62.5 62.5h375c34.515625 0 62.5-27.984375 62.5-62.5zm-437.5-37.5h375c20.679688 0 37.5 17.386719 37.5 38.066406v3.183594h-450v-3.183594c0-20.679687 16.820312-38.066406 37.5-38.066406zm412.5 66.25v43.75h-450v-43.75zm-37.5 236.25h-375c-20.679688 0-37.5-17.386719-37.5-38.066406v-129.433594h450v129.433594c0 20.679687-16.820312 38.066406-37.5 38.066406zm0 0"/><path d="m167.972656 184.496094c-9.359375-.003906-18.558594 2.449218-26.679687 7.109375-22.617188-12.941407-51.261719-7.820313-67.992188 12.167969-16.734375 19.988281-16.734375 49.089843 0 69.078124 16.730469 19.984376 45.375 25.113282 67.992188 12.164063 19.613281 11.207031 44.140625 8.964844 61.402343-5.605469 17.261719-14.574218 23.578126-38.378906 15.820313-59.59375-7.765625-21.21875-27.949219-35.324218-50.542969-35.320312zm-28.8125 53.816406c0-3.726562.722656-7.417969 2.132813-10.867188 2.847656 6.964844 2.847656 14.765626 0 21.730469-1.40625-3.449219-2.132813-7.132812-2.132813-10.859375zm-53.355468 0c0-8.9375 4.148437-17.363281 11.222656-22.824219 7.078125-5.453125 16.285156-7.3125 24.925781-5.039062-10.386719 17.125-10.386719 38.597656 0 55.722656-8.640625 2.277344-17.851563.414063-24.925781-5.039063-7.074219-5.457031-11.222656-13.886718-11.222656-22.820312zm82.167968 28.8125c-2.472656 0-4.941406-.316406-7.332031-.953125 10.382813-17.117187 10.382813-38.597656 0-55.722656 10.808594-2.847657 22.292969.820312 29.457031 9.410156 7.160156 8.582031 8.707032 20.542969 3.96875 30.667969-4.738281 10.128906-14.910156 16.597656-26.09375 16.597656zm0 0"/></svg>