<svg height="512pt" viewBox="-43 0 512 512" width="512pt" xmlns="http://www.w3.org/2000/svg"><path d="m410.59375 0h-357.125c-8.285156 0-15 6.714844-15 15v48.535156h-23.46875c-8.285156 0-15 6.71875-15 15 0 8.285156 6.714844 15 15 15h23.46875v40.984375h-23.46875c-8.285156 0-15 6.71875-15 15 0 8.285157 6.714844 15 15 15h23.46875v40.988281h-23.46875c-8.285156 0-15 6.714844-15 15 0 8.28125 6.714844 15 15 15h23.46875v40.984376h-23.46875c-8.285156 0-15 6.714843-15 15 0 8.285156 6.714844 15 15 15h23.46875v40.984374h-23.46875c-8.285156 0-15 6.714844-15 15 0 8.285157 6.714844 15 15 15h23.46875v40.984376h-23.46875c-8.285156 0-15 6.71875-15 15 0 8.285156 6.714844 15 15 15h23.46875v48.539062c0 8.285156 6.714844 15 15 15h357.125c8.285156 0 15-6.714844 15-15v-482c0-8.285156-6.714844-15-15-15zm-15 482h-327.125v-33.535156h18.207031c8.28125 0 15-6.71875 15-15 0-8.285156-6.71875-15-15-15h-18.207031v-40.984375h18.207031c8.28125 0 15-6.71875 15-15 0-8.285157-6.71875-15-15-15h-18.207031v-40.988281h18.207031c8.28125 0 15-6.714844 15-15 0-8.28125-6.71875-15-15-15h-18.207031v-40.984376h18.207031c8.28125 0 15-6.714843 15-15 0-8.285156-6.71875-15-15-15h-18.207031v-40.984374h18.207031c8.28125 0 15-6.714844 15-15 0-8.285157-6.71875-15-15-15h-18.207031v-40.988282h18.207031c8.28125 0 15-6.714844 15-15 0-8.28125-6.71875-15-15-15h-18.207031v-33.535156h327.125zm0 0"/><path d="m217.246094 409.390625c22.96875 27.765625 46.820312 42.371094 68.578125 42.371094 4.785156 0 9.472656-.707031 14.023437-2.136719.289063-.089844.574219-.191406.855469-.296875l27.097656-8.507813c9-2.824218 16.363281-8.984374 20.730469-17.34375 4.367188-8.367187 5.214844-17.929687 2.378906-26.929687l-18.324218-58.238281c-5.84375-18.566406-25.714844-28.921875-44.296876-23.089844l-27.808593 8.730469c-1.3125-.066407-7.230469-2.394531-15.640625-13.355469-8.707032-11.351562-16.5625-27.320312-22.117188-44.972656-5.550781-17.644532-8.257812-35.222656-7.625-49.5.617188-13.796875 4.132813-19.085938 5.167969-19.890625.027344-.007813.054687-.019531.082031-.027344l27.726563-8.699219c9-2.828125 16.363281-8.988281 20.730469-17.347656 4.371093-8.367188 5.214843-17.929688 2.382812-26.933594l-18.339844-58.261718c-5.839844-18.566407-25.710937-28.921876-44.289062-23.089844l-27.960938 8.777344c-.097656.03125-.191406.0625-.285156.09375-25.085938 8.054687-40.859375 36.496093-44.425781 80.132812-3.207031 39.199219 3.453125 87.550781 18.746093 136.144531 15.292969 48.597657 37.527344 92.054688 62.613282 122.371094zm-51.460938-256.074219c2.449219-29.929687 11.34375-50.132812 23.800782-54.042968.078124-.023438.15625-.050782.234374-.078126l27.722657-8.699218c2.808593-.886719 5.808593.675781 6.691406 3.472656l18.335937 58.265625c.574219 1.816406.023438 3.308594-.355468 4.03125-.378906.730469-1.292969 2.039063-3.125 2.613281l-27.957032 8.777344c-.117187.035156-.230468.074219-.347656.109375-8.5625 2.8125-22.878906 12.132813-25.398437 42.9375-1.515625 18.535156 1.582031 41.238281 8.71875 63.925781 7.140625 22.683594 17.605469 43.070313 29.464843 57.40625 19.96875 24.136719 37.234376 23.257813 45.746094 20.582032l27.960938-8.773438c2.808594-.886719 5.808594.671875 6.691406 3.472656l18.328125 58.238282c.570313 1.816406.019531 3.304687-.359375 4.03125-.378906.730468-1.292969 2.039062-3.125 2.613281l-27.957031 8.777343c-.203125.0625-.40625.128907-.605469.203126-24.066406 6.414062-75.898438-44.34375-107-143.167969-14.160156-44.984375-20.359375-89.265625-17.464844-124.695313zm0 0"/></svg>