<?xml version="1.0" encoding="iso-8859-1"?>
<!-- Generator: Adobe Illustrator 19.0.0, SVG Export Plug-In . SVG Version: 6.00 Build 0)  -->
<svg version="1.1" id="Capa_1" xmlns="http://www.w3.org/2000/svg" xmlns:xlink="http://www.w3.org/1999/xlink" x="0px" y="0px"
	 viewBox="0 0 512 512" style="enable-background:new 0 0 512 512;" xml:space="preserve">
<g>
	<g>
		<g>
			<path d="M256,24C114.685,24.168,0.168,138.685,0,280c-0.069,55.459,18.039,109.412,51.552,153.6l4.8,6.4h121.936
				c8.677,34.091,43.348,54.694,77.439,46.017c22.609-5.754,40.263-23.408,46.017-46.017H455.68l4.8-6.4
				c33.501-44.192,51.598-98.145,51.52-153.6C511.833,138.685,397.316,24.168,256,24z M240,456c-17.673,0-32-14.327-32-32
				c0-17.673,14.327-32,32-32c17.673,0,32,14.327,32,32C272,441.673,257.673,456,240,456z M439.52,408H301.728
				c-3.988-15.468-13.616-28.885-26.992-37.616l60.448-181.328l-30.4-10.112L244.32,360.432c-1.456-0.096-2.848-0.432-4.32-0.432
				c-29.095,0.109-54.454,19.829-61.728,48H72.48C46.074,370.547,31.931,325.826,32,280C32,156.288,132.288,56,256,56
				s224,100.288,224,224C480.07,325.826,465.927,370.547,439.52,408z"/>
			<path d="M87.568,187.904l28.064,15.376c4.677-8.496,10.107-16.555,16.224-24.08l-24.832-20.208
				C99.681,168.024,93.17,177.7,87.568,187.904z"/>
			<path d="M150.144,119.872l17.68,26.688c8.101-5.363,16.669-9.984,25.6-13.808L180.8,103.344
				C170.105,107.92,159.845,113.452,150.144,119.872z"/>
			<path d="M99.04,248.864l-31.392-6.224c-2.265,11.417-3.486,23.017-3.648,34.656l32,0.432
				C96.136,268.034,97.154,258.373,99.04,248.864z"/>
			<path d="M72.08,335.04c3.38,11.143,7.766,21.955,13.104,32.304l28.416-14.688c-4.461-8.611-8.119-17.614-10.928-26.896
				L72.08,335.04z"/>
			<path d="M399.376,350.656L428,364.976c5.215-10.43,9.457-21.319,12.672-32.528l-30.768-8.8
				C407.242,332.958,403.717,342,399.376,350.656z"/>
			<path d="M403.2,156.96l-24.528,20.528c6.225,7.441,11.763,15.431,16.544,23.872l27.84-15.776
				C417.319,175.461,410.673,165.88,403.2,156.96z"/>
			<path d="M316.576,131.904c8.964,3.693,17.576,8.192,25.728,13.44l17.344-26.944c-9.801-6.264-20.153-11.619-30.928-16
				L316.576,131.904z"/>
			<path d="M416,275.536l32-0.912c-0.327-11.632-1.709-23.21-4.128-34.592l-31.296,6.656
				C414.579,256.182,415.725,265.837,416,275.536z"/>
			<path d="M237.28,88.912l3.072,31.84c9.666-0.917,19.394-0.987,29.072-0.208l2.656-31.872
				C260.497,87.704,248.849,87.784,237.28,88.912z"/>
		</g>
	</g>
</g>
<g>
</g>
<g>
</g>
<g>
</g>
<g>
</g>
<g>
</g>
<g>
</g>
<g>
</g>
<g>
</g>
<g>
</g>
<g>
</g>
<g>
</g>
<g>
</g>
<g>
</g>
<g>
</g>
<g>
</g>
</svg>
