<?xml version="1.0" encoding="iso-8859-1"?>
<!-- Generator: Adobe Illustrator 16.0.0, SVG Export Plug-In . SVG Version: 6.00 Build 0)  -->
<!DOCTYPE svg PUBLIC "-//W3C//DTD SVG 1.1//EN" "http://www.w3.org/Graphics/SVG/1.1/DTD/svg11.dtd">
<svg version="1.1" id="Capa_1" xmlns="http://www.w3.org/2000/svg" xmlns:xlink="http://www.w3.org/1999/xlink" x="0px" y="0px"
	 width="411.757px" height="411.757px" viewBox="0 0 411.757 411.757" style="enable-background:new 0 0 411.757 411.757;"
	 xml:space="preserve">
<g>
	<path d="M335.973,201.231c-1.799-3.802-5.629-6.23-9.833-6.23h-69.3V10.872c0-4.593-2.883-8.688-7.204-10.238
		c-4.315-1.539-9.148-0.213-12.068,3.329L77.219,198.968c-2.672,3.251-3.229,7.748-1.436,11.555
		c1.801,3.802,5.629,6.228,9.835,6.228h69.297v184.132c0,4.594,2.883,8.688,7.204,10.238c1.2,0.43,2.444,0.636,3.669,0.636
		c3.188,0,6.292-1.406,8.4-3.967l160.35-195.006C337.21,209.535,337.768,205.039,335.973,201.231z M176.665,370.536V205.877
		c0-6.006-4.87-10.876-10.876-10.876h-57.154L235.093,41.214v164.663c0,6.003,4.868,10.873,10.874,10.873h57.154L176.665,370.536z"
		/>
</g>
<g>
</g>
<g>
</g>
<g>
</g>
<g>
</g>
<g>
</g>
<g>
</g>
<g>
</g>
<g>
</g>
<g>
</g>
<g>
</g>
<g>
</g>
<g>
</g>
<g>
</g>
<g>
</g>
<g>
</g>
</svg>
