<svg height="511pt" viewBox="1 0 511.999 511" width="511pt" xmlns="http://www.w3.org/2000/svg"><path d="m451.757812 45.652344h-89.890624v45.074218l-105.867188-90.226562-256 218.175781 60.242188 43.207031v220.222657h-59.925782v29.964843h511.363282v-29.964843h-59.921876v-220.222657l60.242188-43.207031-60.242188-51.34375zm-59.925781 29.960937h29.960938v66.183594l-29.960938-25.535156zm-209.1875 254.675781h146.710938c-10.089844 48.4375-55.765625 57.183594-58.375 58.835938v92.984375h-29.960938v-92.984375c-2.640625-1.675781-48.28125-10.378906-58.375-58.835938zm28.410157-29.953124h-28.414063c3.707031-17.800782 13.890625-33.65625 28.414063-44.554688zm89.890624 0v-44.554688c14.523438 10.898438 24.707032 26.753906 28.414063 44.554688zm0 181.773437v-72.421875c36.238282-17.230469 59.921876-53.917969 59.921876-94.371094 0-84.929687-88.121094-104.402344-89.886719-105.609375v90.628907h-29.960938v-90.628907c-3.476562 2.378907-89.890625 19.273438-89.890625 105.609375 0 40.453125 23.6875 77.140625 59.925782 94.371094v72.421875h-120.847657v-221.03125l165.792969-142.242187 165.792969 142.242187v221.027344h-120.847657zm136.65625-246.945313-181.601562-155.804687-181.601562 155.804687-25.824219-18.519531 207.425781-176.777343 207.421875 176.777343zm0 0"/></svg>