<svg xmlns="http://www.w3.org/2000/svg" xmlns:xlink="http://www.w3.org/1999/xlink" width="136" height="136" viewBox="0 0 136 136">
  <defs>
    <clipPath id="clip-path">
      <rect id="Rectangle_1" data-name="Rectangle 1" width="136" height="136" transform="translate(862 428)" fill="#fff" stroke="#707070" stroke-width="1"/>
    </clipPath>
  </defs>
  <g id="shield" transform="translate(-862 -428)" clip-path="url(#clip-path)">
    <g id="surface1" transform="translate(872.094 428)">
      <path id="Path_1" data-name="Path 1" d="M115.676,36.9l0-.106c-.059-1.306-.1-2.689-.122-4.226a14.414,14.414,0,0,0-13.572-14.121C86.342,17.575,74.245,12.476,63.91,2.4l-.088-.084a8.7,8.7,0,0,0-11.829,0L51.9,2.4C41.569,12.476,29.473,17.575,13.836,18.448A14.413,14.413,0,0,0,.265,32.569C.242,34.1.2,35.478.142,36.794l-.006.246c-.3,15.945-.682,35.789,5.957,53.8a68.486,68.486,0,0,0,16.43,25.592c8.259,8.06,19.077,14.459,32.153,19.018a9.957,9.957,0,0,0,1.318.359,9.732,9.732,0,0,0,3.827,0,9.989,9.989,0,0,0,1.323-.361c13.06-4.568,23.867-10.969,32.119-19.029a68.582,68.582,0,0,0,16.43-25.6C116.356,72.756,115.979,52.875,115.676,36.9ZM102.205,88.061c-7,18.984-21.295,32.021-43.7,39.855a2.006,2.006,0,0,1-.253.069,1.791,1.791,0,0,1-.7,0,1.987,1.987,0,0,1-.251-.067C34.88,120.1,20.578,107.066,13.581,88.082c-6.119-16.6-5.772-34.819-5.466-50.889l0-.089c.062-1.381.1-2.828.127-4.417a6.406,6.406,0,0,1,6.038-6.27,70.017,70.017,0,0,0,23.765-5.227A62.176,62.176,0,0,0,57.413,8.177a.736.736,0,0,1,.988,0A62.2,62.2,0,0,0,77.768,21.189a70.021,70.021,0,0,0,23.766,5.227,6.4,6.4,0,0,1,6.037,6.271c.024,1.6.065,3.044.128,4.416C108,53.192,108.342,71.423,102.205,88.061Zm0,0"/>
      <path id="Path_2" data-name="Path 2" d="M57.905,34.109A33.894,33.894,0,1,0,91.8,68,33.932,33.932,0,0,0,57.905,34.109Zm0,59.806A25.913,25.913,0,1,1,83.817,68,25.942,25.942,0,0,1,57.905,93.915Zm0,0"/>
      <path id="Path_3" data-name="Path 3" d="M67.646,57.48,51.9,73.222l-4.273-4.273a3.99,3.99,0,0,0-5.643,5.642l7.1,7.1a3.99,3.99,0,0,0,5.642,0L73.29,63.122a3.99,3.99,0,1,0-5.643-5.642Zm0,0"/>
    </g>
  </g>
</svg>
